<svg width="412" height="542" viewBox="0 0 412 542" fill="none" xmlns="http://www.w3.org/2000/svg">
<path d="M220.288 540.502C183.415 534.166 156.961 508.647 133.635 486.131C121.143 474.079 109.329 462.685 96.705 454.508C68.1787 436.042 42.7424 429.027 18.1351 422.245C-21.6397 411.298 -62.7711 399.962 -107.03 342.704C-151.591 285.038 -168.303 230.144 -158.11 174.881C-148.124 120.684 -112.551 73.8308 -82.6867 39.0881C-63.2044 16.3979 -49.5819 -11.6792 -35.1868 -41.4032C-22.6571 -67.2519 -9.71289 -93.9725 7.84758 -118.213C52.8981 -180.354 96.7615 -202.657 154.511 -192.736C176.782 -188.919 199.675 -180.684 223.905 -171.964C245.328 -164.272 267.467 -156.308 292.282 -150.049C294.675 -149.448 297.218 -148.906 299.818 -148.46C312.442 -146.29 325.745 -146.232 339.801 -146.154C354.817 -146.077 370.324 -145.999 386.095 -143.287C404.974 -140.051 421.215 -133.443 435.705 -123.115C480.51 -91.2016 484.618 -54.7538 488.593 -19.5268C490.214 -5.16853 491.891 9.65475 496.356 25.0593C502.065 44.7074 512.353 62.8248 523.243 82.0272C539.899 111.364 557.121 141.708 558.835 179.861C562.133 253.299 515.254 294.087 479.719 318.386C468.32 326.195 457.09 332.337 446.237 338.286C423.665 350.648 404.183 361.325 391.389 382.852C387.564 389.285 385.529 400.311 383.57 410.968C381.215 423.757 378.765 436.991 372.755 448.889C351.011 491.983 303.455 537.383 246.233 541.723C237.415 542.343 228.691 541.936 220.288 540.502Z" fill="#DBEAFF"/>
<path d="M-92.2797 330.651C-25.4859 417.071 28.5144 387.444 106.745 438.095C151.325 466.947 182.15 527.074 244.855 522.346C292.015 518.78 334.899 481.809 356.04 439.917C365.913 420.346 364.556 390.835 375.315 372.718C397.529 335.34 434.195 326.213 469.297 302.225C509.75 274.555 542.629 239.037 540.01 180.732C537.466 123.861 493.659 83.5574 478.284 30.5812C462.194 -24.8753 479.49 -68.3569 424.963 -107.227C381.589 -138.133 332.864 -119.88 287.776 -131.254C172.521 -160.3 109.553 -226.142 22.9372 -106.645C-13.2953 -56.6533 -29.6688 6.61203 -68.5957 51.8957C-137.782 132.445 -180.892 215.998 -92.2797 330.651Z" fill="#DBEAFF"/>
</svg>
